# xmcd CD database file
#
# Track frame offsets:
#	187
#	19777
#	39265
#	56222
#	73485
#	98735
#	120130
#	153385
#	166077
#	181375
#	196487
#	214857
#	243007
#	264037
#
# Disc length: 3787 seconds
#
# Revision: 0
# Processed by: cddbd v1.5.2PL0 Copyright (c) Steve Scherf et al.
# Submitted via: CDex 1.70beta1
#
DISCID=b30ec90e
DTITLE=CANNONBALL ADDERLEY - COMPACT JAZZ
DYEAR=1900
DGENRE=Jazz
TTITLE0=Hurricane Connie
TTITLE1=Cannonball
TTITLE2=Nat's Everglade
TTITLE3=Fallen Feathers
TTITLE4=I'll Remember April
TTITLE5=Limehouse Blues
TTITLE6=The Sleeper
TTITLE7=Watermelon
TTITLE8=Fort Lauderdale
TTITLE9=T's Tune
TTITLE10=Blues For Bohemia
TTITLE11=Miss Jackie's Delight
TTITLE12=Hoppin' John
TTITLE13=The Way You Look Tonight
EXTD=
EXTT0=
EXTT1=
EXTT2=
EXTT3=
EXTT4=
EXTT5=
EXTT6=
EXTT7=
EXTT8=
EXTT9=
EXTT10=
EXTT11=
EXTT12=
EXTT13=
PLAYORDER=
